  <svg viewBox="0 0 80 52" fill="none" xmlns="http://www.w3.org/2000/svg" class="navigation-bar__logo"><path d="M45.85.658a2.247 2.247 0 013.177 0l30.315 30.32c.877.877.877 2.3 0 3.178l-2.772 2.772L43.078 3.43 45.85.658zM52.224 19.39L33.764.938a2.246 2.246 0 00-3.177.001L.657 30.886c-.876.878-.876 2.3.002 3.178L17.53 50.93a2.247 2.247 0 003.176.001l19.258-19.22L59.28 50.941c.876.872 2.29.873 3.168.002l10.548-10.47-20.772-21.083zM25.135 32.16c-3.475 0-6.18-2.83-6.18-6.18 0-3.352 2.705-6.18 6.18-6.18 3.475 0 6.18 2.829 6.18 6.18-.001 3.351-2.706 6.18-6.18 6.18z" fill="#fefefe"></path><path d="M27.35 26.514c-.005-.29-.123-.55-.352-.779a.982.982 0 00-.553-.3c-.2-.032-.392-.02-.574.035-.18.052-.408.137-.684.256a8.11 8.11 0 01-.579.24.965.965 0 01-.352.048.476.476 0 01-.279-.148.481.481 0 01-.157-.41c.018-.15.053-.313.343-.604l.577-.576-.383-.383-.423.423c-.02.009-.036.007-.048-.004l-.318-.335a.059.059 0 00-.053-.018.058.058 0 00-.052.018l-.34.34a.077.077 0 00-.021.056c0 .017.007.033.021.048l.331.313c.011.012.013.028.004.048-.197.267-.293.54-.287.819.009.275.123.523.344.744.17.171.355.274.552.309.195.032.386.02.575-.035.189-.055.418-.142.688-.26.246-.103.437-.174.57-.214a.828.828 0 01.357-.053.431.431 0 01.274.136.52.52 0 01.16.421.8.8 0 01-.247.521l-.841.811.363.391.578-.52c.02-.01.036-.008.048.004l.287.296c.014.014.03.021.048.021a.077.077 0 00.057-.021l.34-.34a.059.059 0 00.017-.052.061.061 0 00-.017-.053l-.292-.283c-.012-.011-.013-.027-.004-.048.221-.285.329-.572.323-.862z" fill="#fefefe"></path></svg>
                